#!OML:ASF F:\VICON\USERDATA\INSTALL\Justin_Nancy\Justin_Nancy.ASF
:FULLY-SPECIFIED
:DEGREES
323
root 0.618735 24.3813 3.61472 0.892588 1.96273 2.22938
lowerback 17.9784 1.05889 0.415677
upperback 1.92001 1.72882 2.86453
thorax -8.09234 0.869409 2.42776
lowerneck -16.4126 -4.67139 -9.54323
upperneck 22.7558 -5.15052 4.85544
head 10.384 -2.62386 2.60519
rclavicle -2.18663e-014 1.59028e-015
rhumerus -13.4298 -17.3563 -82.9498
rradius 23.7612
rwrist 9.25097
rhand -24.9667 9.66674
rfingers 7.12502
rthumb 1.54372 -20.3074
lclavicle -2.18663e-014 1.59028e-015
lhumerus -11.8654 6.93008 84.984
lradius 29.2685
lwrist -5.62119
lhand -20.7786 29.0706
lfingers 7.12502
lthumb 5.58813 58.9769
rfemur -38.2918 -15.4804 22.0854
rtibia 75.2231
rfoot 19.7044 4.3606
rtoes 7.1664
lfemur -33.6707 2.90768 -20.2139
ltibia 65.5519
lfoot 15.1149 -13.6176
ltoes -6.73048
324
root 0.607737 24.3059 3.94324 0.901725 2.47049 2.09824
lowerback 17.7867 0.886356 0.490865
upperback 2.12342 1.5239 3.0655
thorax -7.7614 0.770287 2.65289
lowerneck -16.6765 -4.71246 -9.97604
upperneck 23.1291 -5.11165 5.01506
head 10.5864 -2.62499 2.7403
rclavicle 1.59028e-015 -6.36111e-015
rhumerus -16.2199 -20.8527 -81.4011
rradius 23.8195
rwrist 9.21095
rhand -25.5007 9.67813
rfingers 7.12502
rthumb 1.02797 -20.2991
lclavicle 1.59028e-015 -6.36111e-015
lhumerus -13.5073 10.198 84.4102
lradius 27.5083
lwrist -6.65726
lhand -21.1019 24.1159
lfingers 7.12502
lthumb 5.27596 54.0302
rfemur -38.7947 -15.1755 22.2186
rtibia 72.4521
rfoot 19.0318 3.88443
rtoes 6.31434
lfemur -34.1745 2.87602 -20.1855
ltibia 63.1381
lfoot 14.2754 -12.704
ltoes -6.67795
325
root 0.598808 24.2248 4.27621 0.821003 2.95378 1.88052
lowerback 17.6644 0.672427 0.643711
upperback 2.23706 1.28503 3.29592
thorax -7.56295 0.65322 2.87192
lowerneck -16.3546 -4.70224 -10.4885
upperneck 23.1483 -5.07753 5.35203
head 10.5545 -2.61994 2.95723
rclavicle -1.23246e-014 -2.38542e-014
rhumerus -19.6107 -23.1808 -79.5004
rradius 24.2999
rwrist 8.57711
rhand -25.8285 9.47608
rfingers 7.12502
rthumb 0.71139 -20.5025
lclavicle -1.23246e-014 -2.38542e-014
lhumerus -15.6348 13.2874 83.3737
lradius 26.0701
lwrist -8.1235
lhand -20.8198 20.8291
lfingers 7.12502
lthumb 5.54832 50.7364
rfemur -38.8924 -14.7439 22.2932
rtibia 69.4696
rfoot 18.2707 3.38443
rtoes 6.25241
lfemur -34.3519 2.92993 -20.0772
ltibia 60.4469
lfoot 13.5946 -11.7453
ltoes -7.75635
326
root 0.593151 24.1348 4.61225 0.694942 3.33457 1.8325
lowerback 17.7596 0.42557 0.636467
upperback 2.14849 0.98308 3.51348
thorax -7.70128 0.512577 3.18573
lowerneck -15.755 -4.55822 -10.853
upperneck 23.2094 -4.81529 5.23998
head 10.4479 -2.55484 3.02362
rclavicle 3.97569e-016 -2.54444e-014
rhumerus -23.2374 -25.056 -77.1165
rradius 24.2838
rwrist 8.15313
rhand -26.1624 10.5442
rfingers 7.12502
rthumb 0.388868 -19.4352
lclavicle 3.97569e-016 -2.54444e-014
lhumerus -18.4039 15.7412 82.0211
lradius 25.1454
lwrist -9.31987
lhand -20.8238 19.619
lfingers 7.12502
lthumb 5.54443 49.5264
rfemur -38.769 -14.1688 22.0366
rtibia 66.3347
rfoot 17.807 2.51606
rtoes 7.338
lfemur -34.2876 3.01449 -20.1773
ltibia 57.5022
lfoot 13.2034 -10.4311
ltoes -7.16621
327
root 0.59256 24.0191 4.95608 0.49735 3.74662 2.06367
lowerback 18.0024 0.180233 0.482342
upperback 1.95172 0.647033 3.55128
thorax -8.03285 0.359794 3.40235
lowerneck -15.2027 -4.3705 -10.9135
upperneck 23.5924 -4.52165 4.90315
head 10.4501 -2.47828 2.96531
rclavicle 1.19271e-014 1.43125e-014
rhumerus -27.3803 -25.7014 -74.6976
rradius 25.0681
rwrist 7.65318
rhand -26.3253 9.35011
rfingers 7.12502
rthumb 0.231593 -20.6295
lclavicle 1.19271e-014 1.43125e-014
lhumerus -21.1857 17.8956 80.1971
lradius 24.0095
lwrist -10.9309
lhand -20.2427 18.5716
lfingers 7.12502
lthumb 6.10553 48.4636
rfemur -38.4828 -13.6945 21.3605
rtibia 63.1493
rfoot 17.7516 1.68959
rtoes 9.05338
lfemur -33.9564 2.99514 -20.6062
ltibia 54.376
lfoot 12.5203 -9.34668
ltoes -6.35601
328
root 0.593085 23.8848 5.31164 0.292008 4.07247 2.33813
lowerback 17.9315 0.0194682 0.302735
upperback 1.93945 0.396469 3.52335
thorax -7.9937 0.244458 3.53569
lowerneck -14.9039 -4.25343 -11.0375
upperneck 23.8836 -4.38033 4.95548
head 10.4908 -2.42759 3.03249
rclavicle 1.59028e-014 -3.97569e-014
rhumerus -31.299 -25.6253 -72.5531
rradius 26.2424
rwrist 6.87661
rhand -26.1144 7.59792
rfingers 7.12502
rthumb 0.435283 -22.3814
lclavicle 1.59028e-014 -3.97569e-014
lhumerus -23.6358 19.728 78.1805
lradius 22.9009
lwrist -12.7461
lhand -19.0807 19.5916
lfingers 7.12502
lthumb 7.22727 49.4482
rfemur -38.0548 -13.2226 20.6029
rtibia 59.896
rfoot 17.3793 1.22588
rtoes 9.40371
lfemur -33.4259 3.02899 -21.0761
ltibia 51.1364
lfoot 11.5602 -8.72365
ltoes -7.53929
329
root 0.580002 23.7235 5.66533 0.0371745 4.14675 2.14597
lowerback 17.8298 -0.0836368 0.331553
upperback 2.1093 0.272636 3.6901
thorax -7.74676 0.183125 3.7257
lowerneck -15.1535 -4.19661 -11.2226
upperneck 24.1956 -4.23982 5.00015
head 10.6473 -2.37754 3.10146
rclavicle 1.66979e-014 -7.95139e-015
rhumerus -34.5079 -25.3751 -70.5539
rradius 26.742
rwrist 5.97309
rhand -25.9506 8.10393
rfingers 7.12502
rthumb 0.593438 -21.875
lclavicle 1.66979e-014 -7.95139e-015
lhumerus -26.2053 20.5252 76.4119
lradius 22.732
lwrist -13.577
lhand -18.3046 22.0801
lfingers 7.12502
lthumb 7.97638 51.9096
rfemur -37.516 -12.2728 20.4112
rtibia 56.5797
rfoot 16.6489 0.696579
rtoes 8.1269
lfemur -32.9134 3.19993 -20.9007
ltibia 47.8325
lfoot 11.1048 -8.08998
ltoes -8.19477
330
root 0.56605 23.5554 6.02203 -0.220407 4.17379 1.83133
lowerback 17.7659 -0.240616 0.404233
upperback 2.24403 0.0922777 3.91256
thorax -7.55488 0.0943655 3.96537
lowerneck -15.6905 -4.10998 -11.2463
upperneck 24.7608 -3.98794 4.74469
head 10.935 -2.29969 3.05129
rclavicle 3.97569e-016 -2.06736e-014
rhumerus -37.2901 -24.4965 -68.7885
rradius 26.6911
rwrist 5.08912
rhand -26.0649 8.78751
rfingers 7.12502
rthumb 0.483066 -21.1917
lclavicle 3.97569e-016 -2.06736e-014
lhumerus -28.9985 20.7909 74.6283
lradius 22.9495
lwrist -13.7701
lhand -17.9993 23.4844
lfingers 7.12502
lthumb 8.27098 53.3025
rfemur -36.8232 -11.2064 20.3119
rtibia 53.1676
rfoot 16.0886 0.171521
rtoes 6.24215
lfemur -32.292 3.31248 -20.539
ltibia 44.4045
lfoot 11.1673 -7.45937
ltoes -7.5213
331
root 0.563008 23.3937 6.39524 -0.547632 4.34349 2.04485
lowerback 17.5177 -0.365628 0.212359
upperback 2.35393 -0.123484 3.86282
thorax -7.28503 -0.00932486 4.06414
lowerneck -15.9836 -4.07294 -11.2584
upperneck 25.321 -3.92034 4.79065
head 11.1975 -2.27276 3.0867
rclavicle -8.74653e-015 -1.43125e-014
rhumerus -40.1115 -23.2496 -67.2738
rradius 26.5799
rwrist 4.2104
rhand -26.0571 8.97184
rfingers 7.12502
rthumb 0.490579 -21.0073
lclavicle -8.74653e-015 -1.43125e-014
lhumerus -31.6047 20.8426 72.6401
lradius 22.7407
lwrist -14.0828
lhand -17.7646 24.0351
lfingers 7.12502
lthumb 8.49753 53.8441
rfemur -35.826 -10.4777 19.4897
rtibia 49.7276
rfoot 15.6309 -0.240297
rtoes 4.6566
lfemur -31.2541 3.0845 -20.7718
ltibia 40.872
lfoot 11.5204 -6.64135
ltoes -7.21247
332
root 0.556751 23.2165 6.77697 -0.984945 4.60007 2.16286
lowerback 17.2311 -0.48364 0.0849133
upperback 2.36787 -0.313868 3.818
thorax -7.09932 -0.101262 4.1251
lowerneck -15.6669 -4.00372 -11.2593
upperneck 25.6275 -3.90704 4.92653
head 11.2512 -2.26058 3.14763
rclavicle 1.94809e-014 -2.54444e-014
rhumerus -43.1338 -21.3797 -66.1373
rradius 26.8894
rwrist 3.07395
rhand -25.8059 9.36304
rfingers 7.12502
rthumb 0.733212 -20.6154
lclavicle 1.94809e-014 -2.54444e-014
lhumerus -34.2446 20.7423 70.4631
lradius 22.2022
lwrist -14.5977
lhand -18.0203 23.6033
lfingers 7.12502
lthumb 8.25077 53.4222
rfemur -34.6162 -9.73658 18.729
rtibia 46.3782
rfoot 15.1152 -1.01329
rtoes 4.07824
lfemur -30.0853 2.65915 -20.8384
ltibia 37.3674
lfoot 12.3555 -5.67164
ltoes -7.93243
333
root 0.542517 23.0132 7.15738 -1.45247 4.77044 2.01745
lowerback 17.1701 -0.554166 0.0451403
upperback 2.16525 -0.405769 3.86202
thorax -7.2777 -0.13996 4.22048
lowerneck -14.7133 -3.866 -11.25
upperneck 25.6185 -3.86698 5.04594
head 11.0561 -2.23895 3.20443
rclavicle -1.80894e-014 5.725e-014
rhumerus -46.4043 -19.1553 -65.2344
rradius 27.4243
rwrist 1.93315
rhand -25.5988 9.85942
rfingers 7.12502
rthumb 0.933248 -20.1183
lclavicle -1.80894e-014 5.725e-014
lhumerus -37.2198 19.5666 68.5973
lradius 22.2384
lwrist -13.9961
lhand -18.9333 22.1661
lfingers 7.12502
lthumb 7.36955 52.0177
rfemur -33.4188 -8.72145 18.2868
rtibia 43.1862
rfoot 14.5709 -2.31153
rtoes 4.16309
lfemur -28.9426 2.29308 -20.5501
ltibia 33.9502
lfoot 13.3263 -4.72292
ltoes -8.7397
